#Zeny_a002.obj

v 0.05528925 1.788139E-09 -0.00432348
v 0.04788191 0.02764464 0.004323478
v 0.04788191 0.02764464 -0.00432348
v 0.05528925 1.788139E-09 0.004323463
v 0.02764461 0.04788192 0.004323478
v 0.02764461 0.04788192 -0.004323479
v 0 0.05528926 0.004323479
v 0 0.05528926 -0.004323479
v -0.02764463 0.0478819 0.004323479
v -0.02764463 0.0478819 -0.004323478
v -0.0478819 0.02764464 0.00432348
v -0.0478819 0.02764464 -0.004323476
v -0.05528926 1.609325E-08 0.004323466
v -0.05528926 1.609325E-08 -0.004323476
v -0.0478819 -0.02764461 0.00432348
v -0.0478819 -0.02764461 -0.004323476
v -0.02764465 -0.0478819 0.004323479
v -0.02764465 -0.0478819 -0.004323478
v -2.861023E-08 -0.05528925 0.004323479
v -2.861023E-08 -0.05528925 -0.004323479
v 0.02764458 -0.0478819 0.004323478
v 0.02764458 -0.0478819 -0.004323479
v 0.04788187 -0.02764465 0.004323478
v 0.04788187 -0.02764465 -0.00432348
v 0.05528925 1.788139E-09 0.004323463
v -2.861023E-08 1.788139E-09 0.004323479
v 0.04788191 0.02764464 0.004323478
v 0.02764461 0.04788192 0.004323478
v 0 0.05528926 0.004323479
v -0.02764463 0.0478819 0.004323479
v -0.0478819 0.02764464 0.00432348
v -0.05528926 1.609325E-08 0.004323466
v -0.0478819 -0.02764461 0.00432348
v -0.02764465 -0.0478819 0.004323479
v -2.861023E-08 -0.05528925 0.004323479
v 0.02764458 -0.0478819 0.004323478
v 0.04788187 -0.02764465 0.004323478
v 0.04788191 0.02764464 -0.00432348
v 0 1.788139E-09 -0.004323479
v 0.05528925 1.788139E-09 -0.00432348
v 0.02764461 0.04788192 -0.004323479
v 0 0.05528926 -0.004323479
v -0.02764463 0.0478819 -0.004323478
v -0.0478819 0.02764464 -0.004323476
v -0.05528926 1.609325E-08 -0.004323476
v -0.0478819 -0.02764461 -0.004323476
v -0.02764465 -0.0478819 -0.004323478
v -2.861023E-08 -0.05528925 -0.004323479
v 0.02764458 -0.0478819 -0.004323479
v 0.04788187 -0.02764465 -0.00432348

vn 1 -6.187241E-07 0
vn 0.8660253 0.5000001 0
vn 0.8660254 0.5 0
vn 1 -5.597977E-07 0
vn 0.4999996 0.8660256 0
vn 0.4999996 0.8660257 0
vn -2.062413E-07 1 0
vn -2.553464E-07 1 0
vn -0.4999999 0.8660254 0
vn -0.4999999 0.8660254 0
vn -0.8660253 0.5000002 0
vn -0.8660253 0.5000002 0
vn -1 0 0
vn -1 0 0
vn -0.8660256 -0.4999996 0
vn -0.8660256 -0.4999996 0
vn -0.5000004 -0.8660252 0
vn -0.5000004 -0.8660252 0
vn 0 -1 0
vn 0 -1 0
vn 0.4999995 -0.8660257 0
vn 0.4999995 -0.8660257 0
vn 0.8660249 -0.5000008 0
vn 0.8660249 -0.5000008 0
vn 2.910737E-07 0 1
vn 0 0 1
vn 1.58819E-07 -2.319606E-07 1
vn 0 0 1
vn 0 0 1
vn 0 0 1
vn 0 -2.161767E-07 1
vn -2.263908E-07 0 1
vn 0 2.161767E-07 1
vn 0 0 1
vn 0 0 1
vn 0 0 1
vn 1.58819E-07 2.319603E-07 1
vn 0 0 -1
vn 0 0 -1
vn 0 0 -1
vn 0 0 -1
vn 0 0 -1
vn 0 0 -1
vn 0 0 -1
vn 0 0 -1
vn 0 0 -1
vn 0 0 -1
vn 0 0 -1
vn 0 0 -1
vn 0 0 -1

vt 0.055284 0.396432
vt 0.004121 0.481104
vt 0.055284 0.481104
vt 0.004121 0.396432
vt 0.004121 0.565776
vt 0.055284 0.565776
vt 0.004121 0.650448
vt 0.055284 0.650448
vt 0.00412 0.565776
vt 0.055284 0.565776
vt 0.00412 0.481104
vt 0.055284 0.481104
vt 0.00412 0.396432
vt 0.055284 0.396432
vt 0.00412 0.31176
vt 0.055284 0.31176
vt 0.00412 0.227088
vt 0.055284 0.227088
vt 0.00412 0.142416
vt 0.055284 0.142416
vt 0.004121 0.227088
vt 0.055285 0.227088
vt 0.004121 0.31176
vt 0.055284 0.31176
vt 0.901551 0.715607
vt 0.454871 0.77545
vt 0.901551 0.835294
vt 0.781864 0.938947
vt 0.574559 0.99879
vt 0.335184 0.99879
vt 0.127879 0.938947
vt 0.008192 0.835294
vt 0.008192 0.715607
vt 0.127879 0.611954
vt 0.335184 0.55211
vt 0.574559 0.55211
vt 0.781864 0.611954
vt 0.901551 0.835294
vt 0.454871 0.77545
vt 0.901551 0.715607
vt 0.781864 0.938947
vt 0.574559 0.99879
vt 0.335184 0.99879
vt 0.127879 0.938947
vt 0.008192 0.835294
vt 0.008192 0.715607
vt 0.127879 0.611954
vt 0.335184 0.55211
vt 0.574559 0.55211
vt 0.781864 0.611954

g Zeny_a002
usemtl Zeny_a002
usemap Zeny_a002
f 1/1/1 3/3/3 2/2/2
f 2/2/2 4/4/4 1/1/1
f 5/5/5 2/2/2 3/3/3
f 3/3/3 6/6/6 5/5/5
f 7/7/7 5/5/5 6/6/6
f 6/6/6 8/8/8 7/7/7
f 9/9/9 7/7/7 8/8/8
f 8/8/8 10/10/10 9/9/9
f 11/11/11 9/9/9 10/10/10
f 10/10/10 12/12/12 11/11/11
f 13/13/13 11/11/11 12/12/12
f 12/12/12 14/14/14 13/13/13
f 15/15/15 13/13/13 14/14/14
f 14/14/14 16/16/16 15/15/15
f 17/17/17 15/15/15 16/16/16
f 16/16/16 18/18/18 17/17/17
f 19/19/19 17/17/17 18/18/18
f 18/18/18 20/20/20 19/19/19
f 21/21/21 19/19/19 20/20/20
f 20/20/20 22/22/22 21/21/21
f 23/23/23 21/21/21 22/22/22
f 22/22/22 24/24/24 23/23/23
f 4/4/4 23/23/23 24/24/24
f 24/24/24 1/1/1 4/4/4
f 25/25/25 27/27/27 26/26/26
f 27/27/27 28/28/28 26/26/26
f 28/28/28 29/29/29 26/26/26
f 29/29/29 30/30/30 26/26/26
f 30/30/30 31/31/31 26/26/26
f 31/31/31 32/32/32 26/26/26
f 32/32/32 33/33/33 26/26/26
f 33/33/33 34/34/34 26/26/26
f 34/34/34 35/35/35 26/26/26
f 35/35/35 36/36/36 26/26/26
f 36/36/36 37/37/37 26/26/26
f 37/37/37 25/25/25 26/26/26
f 38/38/38 40/40/40 39/39/39
f 41/41/41 38/38/38 39/39/39
f 42/42/42 41/41/41 39/39/39
f 43/43/43 42/42/42 39/39/39
f 44/44/44 43/43/43 39/39/39
f 45/45/45 44/44/44 39/39/39
f 46/46/46 45/45/45 39/39/39
f 47/47/47 46/46/46 39/39/39
f 48/48/48 47/47/47 39/39/39
f 49/49/49 48/48/48 39/39/39
f 50/50/50 49/49/49 39/39/39
f 40/40/40 50/50/50 39/39/39
